<mxfile host="Electron" modified="2024-04-25T15:31:05.480Z" agent="Mozilla/5.0 (Windows NT 10.0; Win64; x64) AppleWebKit/537.36 (KHTML, like Gecko) draw.io/23.1.5 Chrome/120.0.6099.109 Electron/28.1.0 Safari/537.36" etag="QawMzqUqyQOgsW-rrpTE" version="23.1.5" type="device">
  <diagram name="Pagina-1" id="dZDEA8L5xtdEc1kV0Jhx">
    <mxGraphModel dx="1194" dy="814" grid="1" gridSize="10" guides="1" tooltips="1" connect="1" arrows="1" fold="1" page="1" pageScale="1" pageWidth="827" pageHeight="1169" math="0" shadow="0">
      <root>
        <mxCell id="0" />
        <mxCell id="1" parent="0" />
        <mxCell id="YyMks7Wo9ewZVvg8I36D-1" value="" style="rounded=1;whiteSpace=wrap;html=1;fillColor=#0050ef;fontColor=#ffffff;strokeColor=#001DBC;" parent="1" vertex="1">
          <mxGeometry x="2" y="2" width="180" height="300" as="geometry" />
        </mxCell>
        <mxCell id="YyMks7Wo9ewZVvg8I36D-2" value="" style="shape=datastore;whiteSpace=wrap;html=1;fillColor=#b0b0b0;strokeColor=#36393d;" parent="1" vertex="1">
          <mxGeometry x="12" y="97" width="60" height="60" as="geometry" />
        </mxCell>
        <mxCell id="YyMks7Wo9ewZVvg8I36D-17" value="Local&lt;br&gt;Repo" style="text;html=1;align=center;verticalAlign=middle;resizable=0;points=[];autosize=1;strokeColor=none;fillColor=none;" parent="1" vertex="1">
          <mxGeometry x="17" y="117" width="50" height="40" as="geometry" />
        </mxCell>
        <mxCell id="eU9IYwn9l39zo1L2NYLR-1" value="" style="rounded=1;whiteSpace=wrap;html=1;fillColor=#f5f5f5;gradientColor=#b3b3b3;strokeColor=#666666;" parent="1" vertex="1">
          <mxGeometry x="216" y="2" width="180" height="300" as="geometry" />
        </mxCell>
        <mxCell id="eU9IYwn9l39zo1L2NYLR-2" value="" style="rounded=1;whiteSpace=wrap;html=1;fillColor=#dae8fc;gradientColor=#7ea6e0;strokeColor=#6c8ebf;" parent="1" vertex="1">
          <mxGeometry x="468" y="2" width="180" height="300" as="geometry" />
        </mxCell>
        <mxCell id="eU9IYwn9l39zo1L2NYLR-3" value="" style="rounded=1;whiteSpace=wrap;html=1;fillColor=#fff2cc;strokeColor=#d6b656;" parent="1" vertex="1">
          <mxGeometry x="232" y="122" width="150" height="160" as="geometry" />
        </mxCell>
        <mxCell id="eU9IYwn9l39zo1L2NYLR-25" style="edgeStyle=orthogonalEdgeStyle;rounded=0;orthogonalLoop=1;jettySize=auto;html=1;exitX=0.5;exitY=0;exitDx=0;exitDy=0;entryX=0.5;entryY=1;entryDx=0;entryDy=0;" parent="1" source="YyMks7Wo9ewZVvg8I36D-4" target="eU9IYwn9l39zo1L2NYLR-4" edge="1">
          <mxGeometry relative="1" as="geometry" />
        </mxCell>
        <mxCell id="YyMks7Wo9ewZVvg8I36D-4" value="" style="shape=datastore;whiteSpace=wrap;html=1;fillColor=#b0b0b0;fontColor=#333333;strokeColor=#666666;" parent="1" vertex="1">
          <mxGeometry x="244" y="202" width="123" height="60" as="geometry" />
        </mxCell>
        <mxCell id="YyMks7Wo9ewZVvg8I36D-28" value="Repository&lt;br&gt;Application Source" style="text;html=1;align=center;verticalAlign=middle;resizable=0;points=[];autosize=1;strokeColor=none;fillColor=none;" parent="1" vertex="1">
          <mxGeometry x="245.5" y="221" width="120" height="40" as="geometry" />
        </mxCell>
        <mxCell id="eU9IYwn9l39zo1L2NYLR-4" value="&lt;b&gt;Pipeline Jobs&lt;/b&gt;" style="rounded=0;whiteSpace=wrap;html=1;" parent="1" vertex="1">
          <mxGeometry x="245" y="60" width="120" height="30" as="geometry" />
        </mxCell>
        <mxCell id="eU9IYwn9l39zo1L2NYLR-5" value="Azure DevOps" style="text;html=1;align=center;verticalAlign=middle;whiteSpace=wrap;rounded=0;fontSize=15;fontColor=#0074d1;fontStyle=1" parent="1" vertex="1">
          <mxGeometry x="255" y="10" width="125" height="30" as="geometry" />
        </mxCell>
        <mxCell id="eU9IYwn9l39zo1L2NYLR-6" value="&lt;i&gt;&lt;b&gt;IDz/VS Code - desktop&lt;/b&gt;&lt;/i&gt;" style="rounded=0;whiteSpace=wrap;html=1;" parent="1" vertex="1">
          <mxGeometry x="22" y="15" width="140" height="30" as="geometry" />
        </mxCell>
        <mxCell id="eU9IYwn9l39zo1L2NYLR-9" value="&lt;i&gt;&lt;b&gt;z/OS AM Gent&lt;/b&gt;&lt;/i&gt;" style="rounded=0;whiteSpace=wrap;html=1;" parent="1" vertex="1">
          <mxGeometry x="488" y="15" width="140" height="30" as="geometry" />
        </mxCell>
        <mxCell id="eU9IYwn9l39zo1L2NYLR-11" style="edgeStyle=orthogonalEdgeStyle;rounded=0;orthogonalLoop=1;jettySize=auto;html=1;exitX=0.5;exitY=1;exitDx=0;exitDy=0;entryX=0.5;entryY=0;entryDx=0;entryDy=0;" parent="1" source="eU9IYwn9l39zo1L2NYLR-10" target="YyMks7Wo9ewZVvg8I36D-3" edge="1">
          <mxGeometry relative="1" as="geometry" />
        </mxCell>
        <mxCell id="eU9IYwn9l39zo1L2NYLR-10" value="&lt;b&gt;Clone&lt;/b&gt;" style="rounded=0;whiteSpace=wrap;html=1;fillColor=#cce5ff;strokeColor=#36393d;" parent="1" vertex="1">
          <mxGeometry x="498" y="60" width="120" height="25" as="geometry" />
        </mxCell>
        <mxCell id="YyMks7Wo9ewZVvg8I36D-3" value="USS&lt;br&gt;Repo" style="shape=datastore;whiteSpace=wrap;html=1;fillColor=#b0b0b0;fontColor=#333333;strokeColor=#666666;" parent="1" vertex="1">
          <mxGeometry x="528" y="115" width="60" height="60" as="geometry" />
        </mxCell>
        <mxCell id="eU9IYwn9l39zo1L2NYLR-15" style="edgeStyle=orthogonalEdgeStyle;rounded=0;orthogonalLoop=1;jettySize=auto;html=1;exitX=0.5;exitY=1;exitDx=0;exitDy=0;entryX=0.5;entryY=0;entryDx=0;entryDy=0;" parent="1" source="eU9IYwn9l39zo1L2NYLR-13" target="eU9IYwn9l39zo1L2NYLR-14" edge="1">
          <mxGeometry relative="1" as="geometry" />
        </mxCell>
        <mxCell id="eU9IYwn9l39zo1L2NYLR-13" value="&lt;b&gt;DBB Build&lt;/b&gt;" style="rounded=0;whiteSpace=wrap;html=1;fillColor=#cce5ff;strokeColor=#36393d;" parent="1" vertex="1">
          <mxGeometry x="498" y="182" width="120" height="25" as="geometry" />
        </mxCell>
        <mxCell id="eU9IYwn9l39zo1L2NYLR-14" value="z/OS&lt;br&gt;MVS" style="shape=datastore;whiteSpace=wrap;html=1;fillColor=#b0b0b0;fontColor=#333333;strokeColor=#666666;" parent="1" vertex="1">
          <mxGeometry x="528" y="236" width="60" height="60" as="geometry" />
        </mxCell>
        <mxCell id="eU9IYwn9l39zo1L2NYLR-16" value="" style="shape=flexArrow;endArrow=classic;html=1;rounded=0;entryX=0.075;entryY=0;entryDx=0;entryDy=0;exitX=0.067;exitY=1.12;exitDx=0;exitDy=0;exitPerimeter=0;entryPerimeter=0;" parent="1" source="eU9IYwn9l39zo1L2NYLR-10" target="eU9IYwn9l39zo1L2NYLR-13" edge="1">
          <mxGeometry width="50" height="50" relative="1" as="geometry">
            <mxPoint x="448" y="162" as="sourcePoint" />
            <mxPoint x="500" y="112" as="targetPoint" />
          </mxGeometry>
        </mxCell>
        <mxCell id="eU9IYwn9l39zo1L2NYLR-17" style="edgeStyle=orthogonalEdgeStyle;rounded=0;orthogonalLoop=1;jettySize=auto;html=1;exitX=0;exitY=0.75;exitDx=0;exitDy=0;entryX=0.42;entryY=0.975;entryDx=0;entryDy=0;entryPerimeter=0;" parent="1" source="eU9IYwn9l39zo1L2NYLR-3" target="YyMks7Wo9ewZVvg8I36D-17" edge="1">
          <mxGeometry relative="1" as="geometry" />
        </mxCell>
        <mxCell id="eU9IYwn9l39zo1L2NYLR-18" value="&lt;b&gt;Clone&lt;br&gt;(Checkout)&lt;/b&gt;" style="text;html=1;align=center;verticalAlign=middle;whiteSpace=wrap;rounded=0;fontColor=#ffffff;" parent="1" vertex="1">
          <mxGeometry x="62" y="243" width="60" height="30" as="geometry" />
        </mxCell>
        <mxCell id="eU9IYwn9l39zo1L2NYLR-20" style="edgeStyle=orthogonalEdgeStyle;rounded=0;orthogonalLoop=1;jettySize=auto;html=1;exitX=0.5;exitY=0;exitDx=0;exitDy=0;entryX=0;entryY=0.5;entryDx=0;entryDy=0;" parent="1" source="YyMks7Wo9ewZVvg8I36D-2" target="eU9IYwn9l39zo1L2NYLR-3" edge="1">
          <mxGeometry relative="1" as="geometry" />
        </mxCell>
        <mxCell id="eU9IYwn9l39zo1L2NYLR-21" value="&lt;b&gt;Push&lt;/b&gt;" style="text;html=1;align=center;verticalAlign=middle;whiteSpace=wrap;rounded=0;fontColor=#ffffff;" parent="1" vertex="1">
          <mxGeometry x="62" y="52" width="60" height="30" as="geometry" />
        </mxCell>
        <mxCell id="eU9IYwn9l39zo1L2NYLR-22" value="&lt;b&gt;&lt;i&gt;Git Services&lt;/i&gt;&lt;/b&gt;" style="rounded=0;whiteSpace=wrap;html=1;shadow=1;" parent="1" vertex="1">
          <mxGeometry x="248" y="157" width="116" height="25" as="geometry" />
        </mxCell>
        <mxCell id="_W5xH4iXpYUqNhzXS31z-1" style="edgeStyle=orthogonalEdgeStyle;rounded=0;orthogonalLoop=1;jettySize=auto;html=1;exitX=1;exitY=0.5;exitDx=0;exitDy=0;entryX=-0.017;entryY=0.2;entryDx=0;entryDy=0;entryPerimeter=0;" edge="1" parent="1" source="eU9IYwn9l39zo1L2NYLR-4">
          <mxGeometry relative="1" as="geometry">
            <mxPoint x="464.94000000000005" y="75" as="targetPoint" />
          </mxGeometry>
        </mxCell>
        <mxCell id="eU9IYwn9l39zo1L2NYLR-7" value="&lt;b&gt;Agent&lt;/b&gt;" style="whiteSpace=wrap;html=1;aspect=fixed;fillColor=#d5e8d4;gradientColor=#97d077;strokeColor=#82b366;" parent="1" vertex="1">
          <mxGeometry x="376" y="40" width="70" height="70" as="geometry" />
        </mxCell>
        <mxCell id="_W5xH4iXpYUqNhzXS31z-2" value="" style="shape=image;imageAspect=0;aspect=fixed;verticalLabelPosition=bottom;verticalAlign=top;image=data:image/webp,UklGRnIUAABXRUJQVlA4WAoAAAAYAAAA/wAA/wAAQUxQSN8MAAAB8IBtm1nbtrY9QcewbRvTtj3msG17jGnb9pzDtm3btm0G9RxHS6VSLUlVLe09IkKCALZh4igJ5Iwis9BiQccHQLRmQIOu3jp1NwPa4h8ZwFQ5WiJuvQM0Xd1ohTfQ6ZZgKRyOjTg2JxgKB3FtPPgYgK5uILEQ3wYwlQ1C0EGcUxgMTdk3BImNp2sAGIoGIkG0Eb/WwFQ10GO5uLIc6JqiQbEsvNIswVIxfBOP9XcGMNULVncd3HYnaLqCwWLRNly9YLF8NlytCOp+G65YBLLwHQBT0UBk2nBFg23D1QyWDdfBVDICbbiCEWzD1Qul2nAT2vJApTbcSIH6PFCmDde8zSw5Ct1gKNKGGzpAao0JNvLMuGz44wC6gvhv7EBEB0nwRH02XNcT8WdHXEV0bEKou6QnDqFtuDr4hXttRETbJSQBjsZrw8+owYbr3s49NuACosvihzJBL9k3OpgK4OfttNLjO0nxk7Dhq8qDrkmef++vp318rlkYya42lzaLes/M3mpRSPwkbXhGMGXNr/7tUURiu2Hwk7ThO+4GTZcwP1PDWYSPHwmL9EywZPteW+GT/YgYDZ/zG7kJucGQqblOe3WyhejY4fFDseGHnwTQpWmu397Jx4+che8DmDI018Zzo6/xmesYsAjOLwqGJjt+kT6bOcx1fII2nq0FYMjNXA+6GGCuYzZBtBG/M8CUFj9f5zWROKzwbfiaiqBrUuLf99sZH59zFqdk11pJhkW9E+ZstSSIH+OJxxqYKUYsTTdMLXr+7d8ej8RcR2rDd3o2PE5rjWj5WRrNiYQfDxsej7W57m3y/ogNUb7XVv7kYCQOKzY2POK1ue9t+uGoDRep3YrMXKfXmmwjOgk+EgyxxcaGH3kKQI9obZ77m3882rcW0bFsJyJ+mXd2RcIX0IZruuH3qmbexNoxmy4x1vreLUgU5tp8MRpzHU8bHtraB1t+OnbLZY61SLXw+UX7RWOuRbLhmm76n46Z/+HWnyXWImOty15LI+wy+8SQSwHmWtgJoo34vQEm99qUxNrPx2+7wr2WjVD5+btFY65jb8OD1xZ8tO0XE3fwr+VBiPwH/jwbibmOuw1vCcBaW+jxtl9O3HE1cG3ymxSauW67jMWXwSwB4jrXEYflp9e2/2ryrmvca5NFOPw7f2SZa0lwbctBr1nut7V/nOJfS6i1oZ8YYZjrJvMkwSd+rksfXUdnfNXijkzaCuo52YFrw0Ty5vrzQwyHJQ+utW/yJw2qZgSqTcObAWvjA0MHyFB7moPoUHzBuY5t0//w67vHvFunXJpva4zEypno+PYkZkhol3lvD4MvMNd1LB/36uahb7xcPIXmMlylB4wl4PlxN0Q214QQmotUu7h6YK9nChv0AWH6/Ha8YUJvcc01QZrr281zy3/r8nheLYgbfxjwKKLl8YWuqe7pBd+3vz+Hr/ybvi9cxYAOuQ+jg4SIXFNnft3ijqxJcAX4YypaiSFoTd0/5eOG/ppq+LmCwYC30E4M8WsqUE1AmPAUtSOi1dRhiZqaGsQVFTrkP+6RBKqpawf2eja4pgoNgFkeSYyaen4FV00VHgZ8QJEEqKk/dOCoqVKACc9TpNjX1DuDa6o0oEPh0x4prtybBxI1tVpwTZUKNID5XiyONfXG7jHv1eWoqfKBAZ9ShkuEmiopmPAKuglSLLhItUvruGqqxKBD8XMeKT41tevjefUgrpzAJi3xSNHXVHJ6wY8d7s8ZWFhkCAO+pkgR19RZX7e4K1sgV5YwoQ5Fiq6mHpzycSOOmipTGFD6IrpIIqyp6YGFRbbQQF/pkSKoqcPfeLlEYE2VMwz4IXkSISSEmipvmNAQHUJIpDVV7jCg/BWPFE5N/an9/bkCC4v8oYG5ziNxzlg1dXaipmYN5CoCOvzGT6Kei3VwyieNOb4LVQhMaM5PInh6zPt1OGqqYmBA5evcJLTxnyCuiqBB2ibKcfDib0j1FRZlQYd/PFIySOiqDdCWdhzqxu0W9XFD4diNTmKoHN5c+ojDUDoIElQ7EPGW/7jlP275j1v+478AcAhBQtR+49iu95CyMfMitcG0rJIBBer/vpspq2AkWtq9b86/gojEJ6tYaAa1s0Wa/HOAKavYG9ANb12Gh99bfM2TtWhZlQLAL1ui5ZDDDFmlgimb6bGPlt+gZS2FIlC2dNsRx7zl+CcYmhrBI5v1mc/WXMNh9IthGrqmOHDIUttctnf/2/OkAaNRWTTFgbnJlOw03L14xJc96j5QLKPOOjJN70BUC7hlUyHnQaQauX5y7aSf32j+ZIXsKczD08uiMgAYUP063rRsF/3NurB99oCPOr58R/505lsVdUIqCWBCQ3SJ11zHtiyHYcqdK4eWjvqmV/2HSmQ2Ak9ItQAM+ARtJAS9uP8FYB+I10+tn/LbWy2fqZQzNfCEVAQ0gMloBXwo581iXdg1d/AnnV+9q0AGLeCE1DW5A3TIutObIkcjBOksjs08Id2rR1aM+a5vo0dKZTEDD0RJAwyocg1dnp78gXjjzKZpf7zb5rmquYJPSNkCTKiDLuHoSR2ItmWxstiX9iwY+lnXWvcWzhBsXWQJMOB9tFmcELO4ASckuXZ01fgf+zd5rGzW4BNSegCA8Wgl0cM/IW+e3TLjr/fbvVCdx9NLCzpk2sonEOqByGVd7Mv7Fg3/snud+4tyeHr53BhQ4TI6SfTIT8jrx9dM/Pn1Zk+Wzxbs6SXyhwk1kJAkemxOyHPbZg/4sMPLt+dLC/b04gMMeAttws+J2wnpXDmwZOTXveo9WDxTsKcXGKDByKQEYnVC2oTl6U+um/zrWy2erpQj+IQUETqkb0Q7rj0MT79j7qCPO9W4q0C6FnAgCgUwoMyFpATie0IGefpDy8Z826fhw6X8H3aniwQw4QVkGnBRsnB7+tMbpv7+Tutnyy2IHmH3fgECor0AhMvTWw4SkQAaDKEEBEIYH3YJCoaUtbSADJrvhBTsBgwocZYSkEoTC2DC05SAQhBF70kJKAGEoAsRNA3+oQTUMByMBsZKSkD+A9HGMxBFM6DoKRUIECQW7qwAAJFwHpe/AEkMG+dlB4iqd0EnISB5fYL/ABhRdR1+pwTkro9vefsXFTTQllBd3sNGtzFQX/NGd1fwmLwFCKKFZx7y06LjPCRrAUKl3FISTICoezt0CBIp6zs4IzNjRPrgTxRHwvoEfw1IGaEALKC6fPWxH50yDnd5D3sC0h1WHc6UERnwex1PQLIpT9zDpkUv0JISkGrK9UUZ+jF58BuKI9GUkzKwRzwEZlNdmlb7ezplvO5y7UcbiSxTdg9IGRuBOy1+AYLU98KyGBZerwGx/K9fJjRBlyDhPtZt7zmJH6D0D9/u04jh9PMkOC6iPyD+dyyrCrBH3ASm8Xbi4qgBF/y/4iFE7JRjUtgjdgLZd3MKEBubQsHGo86wAuKm/MKfMq6hatc9AS508p5X7vrDTiOiSwfETNkhIGUsBepTAjzoACmG5gXqDj7BCgg2LLzyvC9lrKcfeSHCBdP/Y64ctQccZQWESrm/SkJDgDaREuAE+APZavx9RKgASQwbl+QRYuiQZQfayA1mIMtLfxxmBeI/XBeHGX792IcqXUUHCQ/Yz44OPP/LAUQkXgBJ7FN+5OmL0UyoRR3ofOAIZHzux72sQKxTtgKg9AWZvkNdkA8G9y/6Mjz1w+5YBwiihReeFO1ns2MoAR5wB9Ie+2YXKxDHlLvLeykFgg4Zt6CNXEgq8MgX26ln6HiBWNGIjfNz+IdAoXKXPAFe8P/COeWhTzcjItKBOKUc4G2EaM2El6nXPBjJB4z7P9nICsQl5Tu+lMJNX6cEAhFKQL/7gw2sQOTDRtIEBP0drAbDKYEghBXQ7nhnDWEESMRXVR/2aIIibT3aSEgAQgzA7W+udKMNECrl1lJ+fSFDpc6jg0EIOVDtjWU2KxDBcG2cmUXgAWDCc4guEjbCD1Tqv9RiBUIeDsHfwHtU6N6HEmAikkD53gtvsgLhpuzPTCnsgkGUAAuRBXrMu+EFbCoQ0rDRruelFB4pqykBGpE9eSpQpvvsa6xAOFdV70vQxG8GFD+DDrIQbaBk51lXEdGhA0mn3FCMpS8450lPgIHIA8XaT7vCCiT15fqUjN6QRO+ONmEgDoGibSZdYl3D4db/wTvkZdF0+Ast9CMGAQ0ACrcaf4EV4NHHngEpxRfQl6Pl+BCfQIHmY8+yAuxh4Y1X6S/XJXJX+ATe9CFWgbyNR50NvIxF6R+5I0GTSzPhEXR9iF2gAfsyFkkMG1cX9PSl0zsitqe2I4aB3PX8l7HolONSGUMuD/6IbWK4H6zLWIOOUQEH8StgPyoTAdjQL4bHQ8BlrH+OIiJ2olNK6a78S9SOxDmQ9YUBh2tEmhIAAFZQOCCqBgAAkC4AnQEqAAEAAT5tNpZIJCMiISexGbCADYlN3C2JoBjAXgD9AH6AfoB4oH0AJyWS/8r/M+6CwL1n+oftN/bein2D75euPzekA+uPzbjA/0PsA/H/+w/P/6AP0P/U7/C9hjzAfzz+1ftl7z/4Ae4X/U+oB/lP+V1iXoAfqr6Z/7s/Bf/ZP+t6Sf///8/uAf//24emv6X/wD8APr97/Cgh/Q2h/JOn6KZTGap9ddTxE79DFbt4BChjRTKW46nOAwKgTXcWcPRpwhj7kKLH5N7srKYsIaoq/+dEwdfFHNe4RchDjpO/WCL1RYfQ+xujCy/FYPSoTCmghRFso8bche80MfBeaGM1jZLJS3QhkpblTWJ00MZ+FnhIkZS6EzQILvsmNcwSTWNym6zwbT03UDhGhJxAoQLDMPVdd70+OvqBbU5rhKhAIQrk1yh7RmsCpNS5ND09zG+bMwYycPRpvFU0Wd02VMpbB13Yz3I1HScQSRja9TgS7zCnvLmi3sYAAP73VInOfRb4p4x3MVpkbrlmOfFiG7QSGIbs8y2736EBXuhH2jK9JjH0Xu2uUaruVhlxpD5hXeUkoGKjx8FbcTan6VAWiS2LAO/nMzpeYqJuGAEP5h0Kf+748qGfrST7zIg+6xhkE5JgPopDRuPEvWOzqidoVSWoJp2hybCn05uzf0U5fLcxCjd/gPyIjGCqGxrWeNsw+It23D5UNarseeiC0gIgvCyQLzOXJ4pVTw14DwqNw8gWnouwWvvPox0LOjUU8oAtZzm+fz7svIzg4e98tjKCdfUbvlULrGd9DfvFPA6IfIX3J/8DZU8xd7h998ke3YCXxXblB+XHJcP+Ym0c19O7dnyaQPjHupIfTowHhvWdtNBvtiizvgVplQkL85tSwjpL8T9FTfFsEqhoCPuQGc6+n4HTpGC4MAAHyzndW1flMVOkyDGjgbGekFG9eGD7sOVY2XvGBjzux5/a3K7j+CVhjn8lfizOKD6SQy/v92lfTz3BkHveL5cf7O/HQCTPCl9aDy2Hdly3u1oN27PuWpoYDZRoKDkuyKz8wqQl7aQVn7ceFV7efOurMvqcGUQbV81JqQEc4jl1T1yvZABqZItmEFf7Dzfvac4EKnzs73bx6NZFiBrHSKsOBCxqCwSXsNcLiFcM0x7VtwMqoqSiPRTfwgDkNvcyLvbpx49F4vHT9iDY1fLoe3nNSB9v74bHu93VjaKEf6gleQ2afHhk22BV7py0xi00DszSerdkMAgjraPTXYDdz8QRotmt8X+Aw5k2oDefz3LQpZuti5T1CIdHOd2PHqH/HLjxm3lPdfkyydmIZ8ogKj/M2w/6yQznOjwkM3MBPoxjeeoVNxvFsBe+NYBaVOjSKEweqpQSS7aYQGJXSweJToDLMWAHkRE2JshLqYPOPZPBXEzsDIohF+YeNo1oOlHoAA4NU1DgABLly44AfLsdcAAQhaZ8Cv7wrd4JlKLTcNMlauv3XE+AtmqMFHmgWd1F/oyHLXLqx93N7dUXD0MAQ8Upq1/9RSv+hVHHk7DWLAGPiWpwDTLmBA2xx8Ty4kv5dLPbGp9AdHj5DLMaK5pPOnheabi8RuvyoKrUOhCTHTwvmFH8LCjwqpYymvSJ+avxIckDDghniFb1iaHC2HPVosnaEB81YFbTV9KyB0krxx2xkKkrJ6zHFKA36A09y1F6K/UzatFSdI/f1GQ6aBGwld8HMsB3uRCt71wg9gJOoCZtIrj/MfRmWUw01Pk4igY8eMAMZga8dUXJuSKv4uj5mMFn/jKyL+AWNygIABTmjdAXXbYiwkibS6U2DZ0Ruc6egCpSHmc2UQyCBLbAZpqeJcHXUqC12nx7ABl1IMLAiLFuSSSfrhPupQkFEhhZakELC/nZMQlSl7RJ0rsw6G3/aPN/5F80efH5S29C2m4Kkj79L5Zgge40A7lsh96Hh13x637LZ+xK8RlUGKVsOvO/kTirmVfL6uloZZj+3e22NkZlIa067buPu8FN+P8u8wvkVkHpIfP9MPse6KAzB9aJB20m+38Qx3FTRrEbdAxmsnaaQR+x/82Q6dI7ohEup9uwe3SOYQdfOf0oL8Q4UzgVJytfNbbeB+Zm5uHnLXnWYRskU9VcWrDfpn/9n3aedw5mz2r41lc+Y05sFFn1nMtgxKN5KQ8mDZH76ZrlcA11YhauSVNbkWD5DTaTjFblEAbyREbK0jLjotYQA0Hnwa7Mi2aIlbOOrYRdij80FP4usCb1nn/slO9rXR++yndSU96AAABFWElGugAAAEV4aWYAAElJKgAIAAAABgASAQMAAQAAAAEAAAAaAQUAAQAAAFYAAAAbAQUAAQAAAF4AAAAoAQMAAQAAAAIAAAATAgMAAQAAAAEAAABphwQAAQAAAGYAAAAAAAAASAAAAAEAAABIAAAAAQAAAAYAAJAHAAQAAAAwMjEwAZEHAAQAAAABAgMAAKAHAAQAAAAwMTAwAaADAAEAAAD//wAAAqAEAAEAAAAAAQAAA6AEAAEAAAAAAQAAAAAAAA==;" vertex="1" parent="1">
          <mxGeometry x="232" y="10" width="30" height="30" as="geometry" />
        </mxCell>
        <mxCell id="_W5xH4iXpYUqNhzXS31z-3" value="" style="shape=image;imageAspect=0;aspect=fixed;verticalLabelPosition=bottom;verticalAlign=top;image=data:image/png,iVBORw0KGgoAAAANSUhEUgAAASwAAAEsCAMAAABOo35HAAAC/VBMVEVHcEzCMha9NRfDNxe7NRe8NRi/NhfJORrGORm7NhbMOhrCNxm8NhjFOBnCNxi7NRbENBTEOBm7NhjUSR67NhfIORq9Nhi7NRjNPhi4NRa7NRa6NxbSOxjTOBTQNxXQOBXRNxbJOBjFNxfSVBzXNxbTNxXVORbWORbdOxfaOhfSOBbWORbhPBfROBbjPRjUOBbRNxXiPRjPOBTPNhTSORjUORbTNxXZRxbQOBXQNxXQNxXQNxXPNBXUNhbQNRbhVxThWhbjWxbhWhbiWRbbTBfhWhbhWhjtXxjwXxj0YRnjXRfiXRfoXRbmWxfyYRjsXhjkWxfiWhfhWhfgVxjnXBjnXBfpXRjhWhbqXRjgWhfhWRffWRXgWRfgWRfgWhbiWRfhWRjhWhbhWRbhWBXgWBTgVxPhWRXfVA7gVhHhWBTiXBrjYCDkYyPjYiLiXx7hWxjgVxLgVQ/fUgzfUAjfUQrgUwzfUgvfUw3kZijoeEHrh1bwlWrznnf0o371poP1qYfwnHTtkGLrgU7ncDbiXRvmbTDpfknti13vmG3woHnxpoLsiVnpekTkaCrgVA7laS3rhVP2ro34tpj5uJz4tpr4tZf4tJb4tJf4tZj4s5Xri1zyq4n4xq771sb93dD+49j+5Nj+4tf+49f828371MP4wqnxpYDqgU3jZCXodTzxmXD3sZL3s5X3spP5t5v2q4ntjV/fUArqgk/zs5P939H82sv94NP6zrryqYXvkmb+4dX828z93tH1uJvpfEbkZSf3r4/rg1H0spPlbjPiXh3818ftlGjncjj+5dr83c70tZbiXhv5yrT82srodj793tD93M771cT0oHrqgEz4x7D2vKH2u6D2vqP82sz70b7lay/3sJD4xKzyqIT6zLfzrYz60Lzxo33fTwf1tpn2v6X82MjhVxP70sD6zbn0pH/vmnH+4db2up74ybL0sJD5wKb/5dv+4NTeTAL828v93M3hWRbgWRffXhLgWRbgWRfnXBfoXBfjWxfhWhbhWhZIGQNZAAAA/3RSTlMAHF2Vucfr//9O//////lZNf//Bsz//7wWP09ND1VoZ2T//wNNpd7/////y////9LE/4aGJ/72INXT7Pb1//8nV4GXpv/U////////h/H//////zzW//NP///DZNif9Tk7//////////////////////////////////////////////////////////////////////////////////////////////////////////////////////////////////////////////////////////////////////////////////////////////////////bcC+By+enqvMctsV4EAAAUYklEQVR4AezTh40FMQgG4Y3ggL0599/ntXCKwNM/JXzSNL8RQqjt+mE029B3rR2qnpiD4ZipN8IVKWUxXk4ULVh1uYiDSp30rea6rOKgdamzttW2H+KjlfdNe0I+xUkna494HeKmY9C1aimLmzLdqlhPPsVNZ55Vsd7iCat8qlhx8YS1vMD6P1YEFrCABSwvAQtYwALWs8jqJvljnx6sJAjCAAgfAljbaHs5zj+rswLo0X9dIXzvVW9WvdCyu1pvPto+7/Ytave83Xy0XnWXVUgdjggT+h3jrYrR7whGx0PZVitB5V8h1ar+ukkqVuUOiCjlCkicUlTijI9CcwUorsVjaVZGKmBJU5LWwDoFLmcHpWCdtAKYPpdhdbkSBTByu5SAhaQCmUT+re43okBGbnfvWGupgCbXNV4YPhxETAGNxQfPWMuEKKCRZOkZ657CxUrvnrEukLEu/xgrYAWsgBWwplleAC3Ppg8eemWnrg0jBoIogE4Pl162RVwmZlj4Yu6/CrMdrxxq9CoY/ML1/OBbGF1YGHzzPVfQ/7h+nKRZ/i0ryuv6azJNYt+l855VLZU2YMVoJevqSSc1bd6BpS5vGzrF6zOwlfUenTB04wS2prEbyJpbqwmMTap2yZKY5QTWJjkLsrNIA+aMXMjKY1VgT60PsjGkBuyZdCAbmwRuciMLIlbATcU2Ef/aO+DW7S+LYR1G4wZtjnd2zoM5bWUNw/+OH6Cpd+pBILEcN4Rk5IJ7t7GwBRbgmyBKXGUw8QUSMHHDce8tPXGc3pNfcNuJVthDxznezPidnmzaM+/37refdpPPqfAvWNew8jkh/vEXrGtYf1zDuoZ1Desa1jWsDFLjGi1BaEkc+7ukVv+WsHBCpwP6P8vKKyqrDJSO0qqxXylcTxlpxlhdbWJoFuh/J1g40GlqauvqzQ2NTU2NDc0trW1lQEf8MlKAYds7Oru6e3p7m7v7LP0YYwK/CSySA9YB8yBvs/NDgiA4nLzd5mqqt5TpwK+wl57h+of/eeOmW/SIXq/o8flvjYyOjZtYEn1YOKeZmJRs/JSUqoAQtE+HrBS4dFS3VTP/uuUVw25/5Kf87qgYvXO3FphwxGEBMGHm7QEpjQSbFKth9ZdagCasbiTuc0cuajbhcd+b4ziUYeHsfL1TQXVRU7aFRYy6NFQqYJwb8cZnI2nl94aXkrQeWVhazjJoC0hZ5LKZ+9nLSi7Tcm8YokqHy3N/heJUaMICZIh3SDkUHKzVkZdSgrdXb6ytR7Iq4dkYNyEJC2xOQltl0dDQ2GXQwpnF+95ILs2ubbUxCMICm2ablI9c9jqqZFokPZwIb0dyy3trh0YOlqHqIqspZzDIO3k+aBcC53/CPsPhJZ5rbvcldi+YyB2OxuPRxN75FNuO7+8wiMEiifpzrAJ8cOEgNtBpmTvsq2902YRztHgLWxoseiaR2E4lFfWE94+OT04ebN2MiuGH52g9emxUIQWLHTjHineaW/tVFMv9VyxYbutqCqbiEp485krpGarbbkZTWPl94ac9h9ZlNY5XVSYHnj33Rh+m0PI9raRQgqVbFaZSWNjNEyQLSDmLtRRb2dqUmv72hj+1xcMCyze8KaziiaXOqtsmQGg0Gj1BMaayvhFvOKJo7QVHogOL2GzkU0gMHmov/u0ItizGp5jL1qUrYSMcXUvtpp52soz+XH7S6tCpmNqfDtPowGL7Uoow2GBlNWnswM1JQ0qmuTqooptRi3sd1thu9GUVg19coj2reSX6Ia3o6TiFCixQszClsDIvcxnOQm2DCq3gJFHkjqglX3shq8ReiAFpgwG89Cm01kYZVGDpQoqx7OZ2KqMB254I0FqO1SKtxfR5YXfgXl88yxBHwNjjhbTcb5IcGrAM84PQWM6miiwMWIszAKl2g6KspSdH4jCM4qGzjL/JW/aZJyLL02vCkYCV0jYEXG1stmjWhYKw2ZKsoKjE6ozOKggYTZZ0UL+Gm+burX4KBViaqgYn3ORC2Tc5YrlxCK6tY4vp3dkXIszto82svI1tb+CoS4zRKMCi2uBxRpguM2RfXG3hYcUeqMgieqyaR7uwbZ+hs7fmZ82wEL3HBIkALF2dLX+z6BUbBqTHoIh4r4vL3Xn8GGhykB0/TfxcvHc/SV09LFzbzMsxtFADcgbcYhCiPeQKr0JjrygbKz6Qsx+ge+TVD33DzNXDIsqaBHmDmwR47jIadMnLY4U3DxpsJBr5S+HnGWseip3w++XQema8eligY0qOLHsrm4cRzbIR+QMcLziyrO/kzBbv5raKtgqyjb7WklcOi9qBIeTKJxbYLjnihKYyolBY1bWJ2Z91Fe/Lo66YXjniE+/HwZXD4lplp7imy4k81s/BiBusKTjhjXXyJwq/f5XLA9Zw/CFMeO7KYenq5MQe+tCuyafTcASKP0ybYt6f//jd03xQV1vCs/KnxJ3qK4fFwoMhb9biecDqEGRYQuGwmI8+2JFWavPwcdu2X+7KDo1XD6tFgQX+Tlg3NvOARSX392ALiwAsGNjOA3VhsBylwWrPC9ZNlGApmSU05lMY1IRD3j0DhbfwTLcMK7xVYcijDCfccmaF54xI7IZwd8vnr3+orJ8vGJYpJO9u7v3HefjSOBOVYe1NVCPUZ0lD+czzdC2yEx2NlfqCW4exaEFOUZzovgXhXmEHb5XkDj7Yp8u5nIQnabh7FiJu9aF8fvF103ncFltSyraMuHJY+spGASY8psmd7wrbFgorVGD8vTxH8N4DZO7lp/JA59M9Cr9yWGrDpF2Zk1K5N084dQjOcUXcHz2Jy0OXN8mcRr4NG/6Ip8ekRmCetWiD//wYl/+MYmqhv5h5VrMIh8rNueqQBJ+9cFI4hsCIBgOPYWFNSblClK2DxuLNOF44LKNlVw6txOk8lYPsXEJevHs6DhCAhZNmXoITrezDW6pf+cJoWyxmBk8sf4lCa72k1VnXah544Qz+K4cjAAvTHcI6zDHS0mrNQUnpsgxYEaJ74Fx9z2/JOoQ/64ZLZ+MzDIYCLKJsWpARuKS2zLRITkl3yRajsGKkS77Zg7eJtiq4jLRUZ7UP3cqHoPa3iHyRTrnq4BzsyERLwy7aAyVfdsDZr56ILPEzlpEWkzxV7iV5VmgMDVhExbRDoTWdTP+4wQAGnFOpxlJjRYmdmHVHIISNquoMNZi88wmyisJ5PQK3aFJSS3JKnRRIY4jNmOIrSVioAUW/FHi2FoESX/enu+1A0HOnccjqoThMY6jA0pDmoAQl8PXz7PnRFqkDE41ByKqorRCKqnkUVWh5H9VxxgsbnZ7GPq4rNbgtfib0yMDCKOsTQYIKBAe7aoAO6NVqDFPjBMWqVycdTkmRrVmrwYoW3ffJH4EkwtGNHY4BkBdJ0eTMU9Gt8EzcT7Io3SnVzfEBSdFUcKF7zrppABQAmrK2gQNBLsGfuQY7xGJEsnfXIopmfesbi+MUQxs5lqFNbx+3jETj5x6mhGgMJVi4rst24f62/Uljc32opfugyRV0pqKSHIE2HVaKQPs3MXIOR/z0VfPwYa1lJvTy+KYYnU1luTZaTSIFC9MSsYvvKwIO3m6387xw4ccFRy2LlSQVW/Pcux1JJbL7SfQlIv6wKMbdkVQ9/L6kB6i9sCBISCu7HIKl5LdOKlPyji9yUf51P7SU4qsNjFKhBgsjiFDQlZsVv7Cjw7GSxXR88URya/37UhVkhRAsTEu1BvgcqAK2xscsjpUulXH8c+ZHYXCnjL8kgArJ94Ykm/xgy2ouJx+r5LBLkYr7R084npXVrGe/z2RQofrsl2vve2KbyphWtsZaYMAuSSoD03m0lsjMKv5pw0qTCL+R1nLWmBQMpK1Ae9Ni+2XEFRTOLH985wmnRxX1PR2gOMT/qwJAWUNP0tAKDM5UslrscgXo/ub3aZPL/62viiExxGFhak7/YSjNC9aGtwC7fFF05fGPc5jkkfN/2Luv7bS1NA7gb8cD7DdAWBxhp1jSpthzY6c4FZ3eXFQoKXcmR1KyJFKdYOMTYqeXSdzbSm8PMJjkAzMDEgumHe3vf51i/9Z/fxtUP/b9FZ4YEjnSjOV/QVIv4QpvjRZYF1ud7UYs5UZLrBRiIRZiIRZiIRZiIRZiIRZi/aWxEAuxEAuxEAuxEAuxOOXj2wxidSIlFpT0+NICYvlLycKz6flcRq0glo8UFZ+NXp7KGCr4IFb7TnlIIRYkqtCalNZWCrFASuZnSl6dQiyQKmzNlB5tQqcQy7tTDzc1p+yphFgRhdY6BVKI5dGpyOzxx75SiBVRClWpDUv3kUKsmCJ3JIVYsXghVJOyQQqx2naKnB/Jux5zygfrafCxoFO7UlndzlrdRTXePxjgg4wFUnLPUtrU5dFvoyTgWLEk7R/qUSpTlXomyCIJNFYsXpU6MVnuRcq4W5USqcgREmCsWLImpfYklZs/9q0gg1RAsXjp3yI1nlYKIoyqwGGB1M0rqz1IuV86lYZbf4OJBVJn3phdSz1ZyDjb8+MgFVishpTpdi1lPH07nBZBKqhYfCJxYFdK61HqahKkAogFUgP3X9wudt0ptyZ1KgVSwcQCqUtLtm52O6eKmrPS6FRgscKDtU4t2VrXnapKXVy+DlLBxRKptO9sL1JPdqUmrp+TQCqoWL/cEwauT1zstVM1qTCBBBHr79eu/fDD8o6jFbuVMjV7pyEVSCyQ+uXd0pRq9CK19OL+/jhIBRALpH6uSpXLWasnqYFEYhDmVOCwQOrXdzu3upfK1qV4AgkeFnSqFynX1IsNqQBj9dIpWH3mmzNjBySQCipW/73ff8j32Kmq1JWbVOLDhAQaa2tg/elmL3Oq1qldKQIJLpY4UzHdbqVsXa12CqRYwJpa7FaqPHli6E8vKcSCTlWl+mnSUwqxoFP9NB4jEMRqI5V9XutUeynEAqn8yJ2D0CnE8lp9+ZHzxE8KscpfOkVkpa0UYoGU1UmnEKvsaNbG8VmOenQKsaBTVamIrESIVxBr0dG+SkUJBLHarL5bDzvqFGK5Uw9LM3wnnUIs156mhU6lEGusQDoNYl2QEAuxEAuxEAuxEAuxEAuxEAuxEAuxEAuxEAuxEAuxEAuxEKuHRD5+e6sl1tjHKGI1haP82dfZJ9a/ZuHRFVHiEKsR5Zv7jx3DapWKY14eogJifU1U/vatbbhWm2S18sn9FLF2ExqUhnN61vJIeW7ptBxBLBIS+VXHtHziqKXkYIh1rJByYP592fJLRdXOCEKIWSywejznWh0kO3dJGGQbSzj4eu6fUEwjo+m6ZjgLzYju3Aulj2WsmLjcZPXE1rJv5k/8bXr05YuHK3ZGbWLUj8thhrHo8aZt0DYejNw5oEhUlmlcOHd/IqctWI2UzftyiFWsEB1aVPfO8MlTR+Q4z5HdhDkhIaVHpjS38SfslZTCKhbf/9xoSHxwX/bLPNmbsCh/+8fel03MvVWijGLJx/cMLGNpaK3FbhdXSqpZ18raZymbWGI615hImQcpufUesHbBamg5ebLFJBY9oYNBxXiQSpDW4dbOunXUT8YpyiKWkNquG5jbz2iItNWadrL1am1EIwxiySWtMYqur5H2iSYn9PofLV6R2MOKRDYcENAmvA/vift3TPiz+otEmDksZdaC789q7luFeGZtOvMJVuzSAM8cVqGk18uyKhPv8Ece2M3rkB2s5vcLLlYOJ/0/kml12peUNSx+4DaMIef1YNR30c5swqI11hWOMSzlcP23zxyXO9gOHsN2YD840scYljRmu/AEw9NJ4ht5FUacuv2twBhWYtx5Uv/lReIbOg642cVZhTEsWoL5br7p5LOAdNqEJtpX4qxhvczADMpHo8Q38fPFOtYFiVks56HIdYB1B7FqzSLYLN+Z9XXAm7c7mlljJmCZp1mbWdIw7G7q3WdiB7jTsHt+tg4rjGElhxrLakzqAOukDtcgraQFxrDEZzkVPsG/lIlf+kjehhn3/GCEMay+g8/ht3ceRyK+RZytwGWBxlvmvhty8WXNgo/kQ77rUB5pHNApFZg7nkWPGU/qB0ppmHhGGNgpAq17XmEOS3x2F4ZWuXI43snxehhZMeawOHE+AwCZecULIJRMbxfrq3CkQJjDInTYgOPq7qvRNc9rbeY1sFq0DisMYvF/vrGBoFi5I3tcn/tSewJ/UruR5BjEInJJb1wfc3GmnVZkbdxebFzqdjpBWMQavPnArmsZF2fXoqRFBDq60LiORv9D4ZjEIvQ7w61rOblhKra48yJ8xlEtiAr7JntYUeWGbtW1THsitSaGm/5AUhrKw7WBcBqMUSzyTWrFbkhktacvUxIVYlwNildk4fyyalgNT+0xxzN8Ten9omo1UtS2l79LHxRlWab8zdnR11mtvMfK3n6mhNjF4mjpCwdE1exc/u3Jkycvrb+pZJystcequAiP/2MTi8TiJ5q1LFe1Db0awyxbTVkonpLDTGORreQJfdHyT8UsjsscYRuL8MrxD2bFF8vYvE45wjoWidHhKc33xp3b52WOIBbh5JmHetHLynaWByghiLWbZLS0PbfQjsrUb19XxBBiwVKUUydyuu22WICOtlQ6QKOEIFY9YiH98oGp26q7B0p19MWN0QF5kEAQC7iOXFnNT9l6xnAc55Wh6QvbD0fOR2WBQBCrEV6iB49eKJ15e3ljY/3tidGxdF+LJ+YjFiQmUjmpiIIgKpIsCe2kEAsS5moJ/6NdusdRIIYBKOw70HATSoIsNE6TECMLIgq4fw8h87PaYpvtJlltgWR/R3h6vM5i/WKxLNb5J5bFOttZ/3vW7inMRp47WLd5XZnN9bWBBhiYTUBo4ShZq0QOWpR3tFjxXaBJ9RbLV2hTjpRZtUzHAo3uo2TVrWS8Q7Mbaa6VhW7QocaY1baKsUIXN/kTq3Tyk4NOe5QgiZVJEgT30O+B8xBoUITCMOMD/mZ7OeDypcaCh8sWjDGf7Bv31GYoVYgd3QAAAABJRU5ErkJggg==;" vertex="1" parent="1">
          <mxGeometry x="225" y="117" width="30" height="30" as="geometry" />
        </mxCell>
      </root>
    </mxGraphModel>
  </diagram>
</mxfile>
